<svg width="320" height="294" viewBox="0 0 320 294" fill="none" xmlns="http://www.w3.org/2000/svg">
<g id="tasteIt">
<g id="box">
<path id="Vector" d="M191.831 142.729V122.879L176.001 132.339L160.421 123.339C160.042 123.12 159.613 123.005 159.176 123.005C158.739 123.005 158.309 123.12 157.931 123.339L144.451 131.279L140.451 124.069L127.621 122.689V142.499C127.6 142.947 127.702 143.392 127.917 143.785C128.133 144.178 128.452 144.505 128.841 144.729L158.841 161.999C159.218 162.215 159.646 162.329 160.081 162.329C160.516 162.329 160.943 162.215 161.321 161.999L190.621 144.999C191.013 144.77 191.334 144.436 191.548 144.035C191.761 143.634 191.859 143.182 191.831 142.729V142.729Z" fill="#FFC400"/>
<path id="Vector_2" d="M160.401 103.509L190.621 120.999C190.997 121.215 191.309 121.527 191.526 121.903C191.743 122.278 191.857 122.705 191.857 123.139C191.857 123.572 191.743 123.999 191.526 124.374C191.309 124.75 190.997 125.062 190.621 125.279L161.321 142.279C160.943 142.495 160.516 142.609 160.081 142.609C159.646 142.609 159.218 142.495 158.841 142.279L128.841 124.969C128.467 124.751 128.157 124.44 127.942 124.065C127.726 123.69 127.613 123.266 127.613 122.834C127.613 122.401 127.726 121.977 127.942 121.602C128.157 121.227 128.467 120.916 128.841 120.699L157.841 103.589C158.219 103.343 158.658 103.205 159.11 103.191C159.561 103.177 160.007 103.287 160.401 103.509V103.509Z" fill="#632DF1"/>
</g>
<g id="lid">
<path id="Vector_3" d="M160.401 92.3286L190.621 109.769C190.997 109.985 191.309 110.297 191.526 110.673C191.743 111.049 191.857 111.475 191.857 111.909C191.857 112.343 191.743 112.769 191.526 113.144C191.309 113.52 190.997 113.832 190.621 114.049L161.321 130.999C160.943 131.215 160.516 131.329 160.081 131.329C159.646 131.329 159.218 131.215 158.841 130.999L128.841 113.689C128.467 113.471 128.157 113.16 127.942 112.785C127.726 112.41 127.613 111.986 127.613 111.554C127.613 111.121 127.726 110.697 127.942 110.322C128.157 109.947 128.467 109.636 128.841 109.419L157.911 92.3386C158.288 92.1186 158.717 92.0018 159.154 92C159.591 91.9983 160.021 92.1116 160.401 92.3286V92.3286Z" fill="#FFC400"/>
</g>
<g id="name">
<path id="Vector_4" d="M194.291 197.649H194.121C192.834 197.649 191.791 198.692 191.791 199.979C191.791 201.265 192.834 202.309 194.121 202.309H194.291C195.578 202.309 196.621 201.265 196.621 199.979C196.621 198.692 195.578 197.649 194.291 197.649Z" fill="#FFC400"/>
<path id="Vector_5" d="M204.521 175.559H204.311C202.803 175.559 201.581 176.781 201.581 178.289V178.299C201.581 179.806 202.803 181.029 204.311 181.029H204.521C206.028 181.029 207.251 179.806 207.251 178.299V178.289C207.251 176.781 206.028 175.559 204.521 175.559Z" fill="#7739FF"/>
<path id="Vector_6" d="M162.101 196.429C161.918 196.719 161.659 196.953 161.352 197.106C161.045 197.26 160.703 197.326 160.361 197.299C159.051 197.299 158.531 196.229 158.531 194.999V175.529H152.891V195.259C152.876 196.32 153.074 197.374 153.471 198.359C154.261 200.229 156.121 202.559 160.471 202.559C161.528 202.497 162.558 202.201 163.486 201.692C164.415 201.184 165.219 200.476 165.841 199.619L162.101 196.429Z" fill="#632DF1"/>
<path id="Vector_7" d="M105.931 182.889H101.101V187.549H105.931V182.889Z" fill="#632DF1"/>
<path id="Vector_8" d="M187.581 192.199C187.597 190.727 187.381 189.263 186.941 187.859C186.511 186.682 185.828 185.613 184.941 184.729C184.089 183.867 183.094 183.16 182.001 182.639C180.721 182.052 179.329 181.752 177.921 181.759C176.666 181.717 175.417 181.935 174.251 182.399C172.97 182.871 171.797 183.595 170.801 184.529C169.815 185.47 169.032 186.603 168.501 187.859C167.381 190.644 167.381 193.754 168.501 196.539C169.034 197.793 169.817 198.926 170.801 199.869C171.794 200.801 172.964 201.525 174.241 201.999C175.592 202.496 177.021 202.747 178.461 202.739C180.036 202.748 181.594 202.406 183.021 201.739C184.315 201.142 185.488 200.311 186.481 199.289L183.201 195.869C182.578 196.593 181.784 197.15 180.891 197.489C180.05 197.849 179.145 198.033 178.231 198.029C177.141 198.081 176.071 197.725 175.231 197.029C174.25 196.332 173.518 195.341 173.141 194.199H187.581V192.199ZM173.781 188.549L173.961 188.279C174.122 188.059 174.303 187.855 174.501 187.669C175.34 186.878 176.439 186.421 177.591 186.382C178.743 186.344 179.87 186.726 180.761 187.459C180.785 187.473 180.806 187.494 180.821 187.519C180.989 187.657 181.143 187.811 181.281 187.979C181.319 188.01 181.353 188.047 181.381 188.089C181.522 188.248 181.649 188.418 181.761 188.599C181.883 188.802 181.993 189.013 182.091 189.229V189.279C182.185 189.488 182.259 189.705 182.311 189.929H173.161C173.258 189.582 173.392 189.247 173.561 188.929C173.627 188.798 173.7 188.671 173.781 188.549Z" fill="#632DF1"/>
<path id="Vector_9" d="M145.001 188.089C144.592 187.561 144.063 187.139 143.457 186.859C142.852 186.579 142.187 186.448 141.521 186.479C141.014 186.478 140.515 186.605 140.071 186.849C139.841 186.967 139.651 187.151 139.525 187.377C139.399 187.603 139.342 187.861 139.361 188.119C139.354 188.354 139.421 188.585 139.551 188.78C139.682 188.976 139.871 189.125 140.091 189.209C140.68 189.481 141.297 189.689 141.931 189.829L144.321 190.409C145.164 190.619 145.969 190.956 146.711 191.409C147.549 191.887 148.235 192.592 148.689 193.443C149.144 194.294 149.349 195.256 149.281 196.219C149.325 197.338 149.044 198.446 148.471 199.409C147.966 200.219 147.281 200.904 146.471 201.409C145.6 201.933 144.641 202.295 143.641 202.479C142.624 202.685 141.588 202.789 140.551 202.789C139.308 202.798 138.074 202.578 136.911 202.139C135.327 201.476 133.893 200.504 132.691 199.279L135.961 195.869C136.633 196.629 137.481 197.212 138.431 197.569C139.182 197.858 139.976 198.016 140.781 198.039C141.407 198.065 142.032 197.984 142.631 197.799C142.874 197.726 143.087 197.575 143.235 197.368C143.383 197.162 143.459 196.913 143.451 196.659C143.457 196.414 143.391 196.172 143.262 195.964C143.132 195.756 142.944 195.591 142.721 195.489C142.138 195.191 141.52 194.969 140.881 194.829L138.491 194.259C137.656 194.058 136.852 193.745 136.101 193.329C135.351 192.913 134.718 192.314 134.261 191.589C133.744 190.676 133.494 189.636 133.541 188.589C133.514 187.532 133.747 186.484 134.221 185.539C134.647 184.701 135.255 183.97 136.001 183.399C136.756 182.816 137.614 182.382 138.531 182.119C139.479 181.864 140.459 181.743 141.441 181.759C142.778 181.723 144.106 181.997 145.321 182.559C146.48 183.061 147.542 183.761 148.461 184.629L145.001 188.089Z" fill="#632DF1"/>
<path id="Vector_10" d="M207.251 202.429V182.429H201.611V202.429H207.251Z" fill="#632DF1"/>
<path id="Vector_11" d="M103.211 196.429C103.028 196.719 102.769 196.953 102.462 197.106C102.155 197.26 101.813 197.326 101.471 197.299C100.161 197.299 99.6407 196.229 99.6407 194.999V175.529H94.0007V195.259C93.9864 196.32 94.1836 197.374 94.5807 198.359C95.3707 200.229 97.2307 202.559 101.581 202.559C102.646 202.504 103.686 202.212 104.624 201.703C105.562 201.194 106.374 200.482 107.001 199.619L103.211 196.429Z" fill="#632DF1"/>
<path id="Vector_12" d="M164.821 182.889H159.991V187.549H164.821V182.889Z" fill="#632DF1"/>
<path id="Vector_13" d="M224.451 182.889H219.621V187.549H224.451V182.889Z" fill="#632DF1"/>
<path id="Vector_14" d="M221.731 196.429C221.548 196.719 221.289 196.953 220.982 197.106C220.675 197.26 220.333 197.326 219.991 197.299C218.681 197.299 218.171 196.229 218.171 194.999C218.171 193.769 218.171 175.529 218.171 175.529H212.531V195.259C212.516 196.32 212.714 197.374 213.111 198.359C213.901 200.229 215.761 202.559 220.111 202.559C221.168 202.497 222.198 202.201 223.126 201.692C224.055 201.184 224.859 200.476 225.481 199.619L221.731 196.429Z" fill="#632DF1"/>
<path id="Vector_15" d="M129.101 192.179V191.879C129.032 189.595 128.209 187.398 126.76 185.632C125.311 183.866 123.318 182.629 121.091 182.115C118.865 181.601 116.532 181.839 114.455 182.791C112.378 183.744 110.675 185.357 109.613 187.379C108.55 189.402 108.186 191.719 108.58 193.97C108.973 196.22 110.101 198.277 111.787 199.819C113.472 201.361 115.622 202.302 117.898 202.493C120.175 202.685 122.451 202.117 124.371 200.879V202.529H129.101V192.189V192.179ZM118.781 197.739C117.681 197.739 116.606 197.413 115.692 196.802C114.777 196.191 114.065 195.322 113.644 194.306C113.223 193.29 113.113 192.172 113.328 191.094C113.542 190.015 114.072 189.025 114.849 188.247C115.627 187.47 116.618 186.94 117.696 186.725C118.775 186.511 119.893 186.621 120.908 187.042C121.924 187.463 122.793 188.175 123.404 189.09C124.015 190.004 124.341 191.079 124.341 192.179C124.341 193.653 123.755 195.067 122.712 196.11C121.67 197.153 120.255 197.739 118.781 197.739V197.739Z" fill="#632DF1"/>
</g>
</g>
</svg>
