<svg xmlns="http://www.w3.org/2000/svg" viewBox="0 0 45.93 46.01"><defs><style>.cls-1{fill:none;stroke:#3c3257;stroke-linecap:round;stroke-linejoin:round;stroke-width:3px;}</style></defs><g id="Layer_2" data-name="Layer 2"><g id="Layer_1-2" data-name="Layer 1"><g id="Iconly_Two-tone_Chat" data-name="Iconly Two-tone Chat"><g id="Chat-5"><path id="Path-5" class="cls-1" d="M23.12,1.5A21.49,21.49,0,0,0,4,33l.43.84A2.82,2.82,0,0,1,4.59,36a43.13,43.13,0,0,0-1.54,5c0,.86.25,1.35,1.17,1.33A39.91,39.91,0,0,0,9,40.89a3.14,3.14,0,0,1,2.05.12c.6.28,1.8,1,1.85,1A21.5,21.5,0,1,0,23.12,1.5Z"/><circle id="Oval-5" class="cls-1" cx="12.87" cy="23" r="1.03"/><circle id="Oval-6" class="cls-1" cx="23.12" cy="23" r="1.03"/><circle id="Oval-7" class="cls-1" cx="33.38" cy="23" r="1.03"/></g></g></g></g></svg>