<svg xmlns="http://www.w3.org/2000/svg" viewBox="0 0 46 46"><defs><style>.cls-1{fill:#632df1;stroke:#632df1;stroke-linecap:round;stroke-linejoin:round;stroke-width:3px;}</style></defs><g id="Layer_2" data-name="Layer 2"><g id="Layer_1-2" data-name="Layer 1"><g id="Category-5-2"><path id="Stroke_1-4-2" data-name="Stroke 1-4-2" class="cls-1" d="M32.22,1.5h7A5.29,5.29,0,0,1,44.5,6.8h0v7.08a5.31,5.31,0,0,1-5.27,5.32h-7A5.31,5.31,0,0,1,27,13.89V6.81A5.29,5.29,0,0,1,32.22,1.5Z"/><path id="Stroke_3-4-2" data-name="Stroke 3-4-2" class="cls-1" d="M6.77,1.5h7A5.28,5.28,0,0,1,19,6.8h0v7.08a5.29,5.29,0,0,1-5.26,5.32h-7A5.31,5.31,0,0,1,1.5,13.89V6.81A5.29,5.29,0,0,1,6.77,1.5Z"/><path id="Stroke_5-4-2" data-name="Stroke 5-4-2" class="cls-1" d="M6.77,26.8h7A5.28,5.28,0,0,1,19,32.1h0V39.2a5.28,5.28,0,0,1-5.24,5.3h-7A5.31,5.31,0,0,1,1.5,39.2V32.11A5.29,5.29,0,0,1,6.77,26.8Z"/><path id="Stroke_7-4-2" data-name="Stroke 7-4-2" class="cls-1" d="M32.22,26.8h7a5.29,5.29,0,0,1,5.28,5.3h0V39.2a5.3,5.3,0,0,1-5.26,5.3h-7A5.3,5.3,0,0,1,27,39.19V32.11a5.29,5.29,0,0,1,5.27-5.31h0Z"/></g></g></g></svg>