<svg xmlns="http://www.w3.org/2000/svg" viewBox="0 0 48.83 49.46"><defs><style>.cls-1{fill:none;stroke:#3e315a;stroke-linecap:round;stroke-linejoin:round;stroke-width:3px;}</style></defs><g id="Layer_2" data-name="Layer 2"><g id="Layer_1-2" data-name="Layer 1"><g id="Layer_2-2" data-name="Layer 2-2"><g id="Layer_1-2-2" data-name="Layer 1-2"><g id="Iconly_Two-tone_Chat-2" data-name="Iconly Two-tone Chat-2"><g id="Chat-5-2"><path id="Path-5-2" class="cls-1" d="M25.26,1.5A23.61,23.61,0,0,0,4.18,36l.49.9a3,3,0,0,1,.24,2.38,38.58,38.58,0,0,0-1.69,5.48c0,.93.24,1.48,1.26,1.48a45.47,45.47,0,0,0,5.27-1.54,3.64,3.64,0,0,1,2.26,0c.66.33,2,1.14,2,1.14a23.6,23.6,0,0,0,22-41.63A23.12,23.12,0,0,0,25.26,1.5Z"/></g></g><g id="Iconly_Two-tone_Star" data-name="Iconly Two-tone Star"><g id="Star-6"><path id="Star-7" class="cls-1" d="M24.89,15.86l2.5,5a.93.93,0,0,0,.63.48l5.6.81a1,1,0,0,1,.57.33.85.85,0,0,1,0,1.12L30,27.54a.8.8,0,0,0-.24.76l1,5.56a.91.91,0,0,1-.72,1,.83.83,0,0,1-.54,0l-5-2.62a1,1,0,0,0-.82,0l-5,2.65a.91.91,0,0,1-1.14-.37,1,1,0,0,1,0-.54l.9-5.66a.85.85,0,0,0-.27-.75l-4.06-3.91a.85.85,0,0,1,0-1.19h0a.88.88,0,0,1,.48-.24l5.6-.82a.9.9,0,0,0,.64-.48l2.5-5a1,1,0,0,1,.51-.46.84.84,0,0,1,.66,0,1,1,0,0,1,.39.46Z"/></g></g></g></g></g></g></svg>