<svg xmlns="http://www.w3.org/2000/svg" viewBox="0 0 46 46"><defs><style>.cls-1{fill:#3e315a;}</style></defs><g id="Layer_2" data-name="Layer 2"><g id="Layer_1-2" data-name="Layer 1"><path class="cls-1" d="M15.82,16H11v5h5a2.51,2.51,0,0,0,2.49-2.73A2.62,2.62,0,0,0,15.82,16Z"/><path class="cls-1" d="M15.82,25H11v5h5a2.51,2.51,0,0,0,2.49-2.73A2.62,2.62,0,0,0,15.82,25Z"/><path class="cls-1" d="M31.56,21.3A4.06,4.06,0,0,0,27.75,24h7.63A4.06,4.06,0,0,0,31.56,21.3Z"/><path class="cls-1" d="M39.26,0H6.74A6.74,6.74,0,0,0,0,6.74V39.26A6.74,6.74,0,0,0,6.74,46H39.17A6.85,6.85,0,0,0,46,39.17V6.74A6.74,6.74,0,0,0,39.26,0ZM26,13H37v3H26ZM17,32H9V13h8a5.49,5.49,0,0,1,5.3,3.75A5.38,5.38,0,0,1,20.7,22.5a5.38,5.38,0,0,1,1.61,5.75A5.49,5.49,0,0,1,17,32Zm21-5H27.45a4,4,0,0,0,7.31.67L37.1,29a6.76,6.76,0,0,1-9.31,2.42,6.55,6.55,0,0,1-3-4A6.74,6.74,0,1,1,38,25.77Z"/></g></g></svg>