<svg xmlns="http://www.w3.org/2000/svg" viewBox="0 0 46 46"><defs><style>.cls-1{fill:#3e315a;}</style></defs><g id="Layer_2" data-name="Layer 2"><g id="Layer_1-2" data-name="Layer 1"><path class="cls-1" d="M16.7,37c-.32.06-.46.21-.42.44s.22.32.54.24.46-.22.42-.42S17,37,16.7,37Z"/><path class="cls-1" d="M15,37.23c-.32,0-.48.1-.48.32s.17.37.51.33.47-.11.47-.33S15.33,37.19,15,37.23Z"/><path class="cls-1" d="M12.66,37.13q-.12.33.39.45t.57-.18c.06-.21-.07-.37-.39-.47S12.74,36.91,12.66,37.13Z"/><path class="cls-1" d="M44.12,3.2A8.29,8.29,0,0,0,37.51,0H8.62A8.41,8.41,0,0,0,1.93,3.19,8.54,8.54,0,0,0,0,8.73V37.27a8.54,8.54,0,0,0,1.93,5.54A8.41,8.41,0,0,0,8.62,46h7.21c.43,0,.76,0,1,0a1.14,1.14,0,0,0,.65-.39,1.41,1.41,0,0,0,.32-1c0-.06,0-.74,0-2s0-2.33,0-3.09l-.67.12a8.55,8.55,0,0,1-1.64.11,12.4,12.4,0,0,1-2-.21,4.57,4.57,0,0,1-2-.9,3.86,3.86,0,0,1-1.3-1.84L9.82,36a7.83,7.83,0,0,0-.93-1.53,3.57,3.57,0,0,0-1.28-1.14l-.21-.15A2.55,2.55,0,0,1,7,32.85a1.37,1.37,0,0,1-.26-.42c-.06-.14,0-.25.14-.34A1.88,1.88,0,0,1,7.76,32l.59.09a4.27,4.27,0,0,1,1.45.72,4.77,4.77,0,0,1,1.43,1.56,5.31,5.31,0,0,0,1.64,1.87,3.44,3.44,0,0,0,1.93.65,8.18,8.18,0,0,0,1.68-.15,5.71,5.71,0,0,0,1.32-.45,4.89,4.89,0,0,1,1.45-3.09,19.76,19.76,0,0,1-3-.54,11.76,11.76,0,0,1-2.77-1.17,7.74,7.74,0,0,1-2.37-2,9.65,9.65,0,0,1-1.55-3.15,15.25,15.25,0,0,1-.6-4.49,8.82,8.82,0,0,1,2.32-6.17,8.18,8.18,0,0,1,.21-6.11A4.06,4.06,0,0,1,14,9.93a17.56,17.56,0,0,1,2.46,1.15q.78.48,1.26.81a20.89,20.89,0,0,1,11.31,0l1.12-.72a15.92,15.92,0,0,1,2.71-1.32,3.81,3.81,0,0,1,2.39-.33,8.1,8.1,0,0,1,.23,6.11,8.82,8.82,0,0,1,2.33,6.17,15.44,15.44,0,0,1-.6,4.51,9.4,9.4,0,0,1-1.57,3.14,8.15,8.15,0,0,1-2.38,2,11.94,11.94,0,0,1-2.77,1.17,20,20,0,0,1-3,.54A5.39,5.39,0,0,1,29,37.4v7.16a2,2,0,0,0,.15.83.83.83,0,0,0,.47.43,2.69,2.69,0,0,0,.57.15,6.65,6.65,0,0,0,.73,0h6.36a8.72,8.72,0,0,0,6.1-2.4A8.39,8.39,0,0,0,46,37.37V8.69A8.56,8.56,0,0,0,44.12,3.2Z"/><path class="cls-1" d="M9.22,33.48q-.21.15.06.48c.2.2.35.23.47.09s.12-.26-.06-.48S9.34,33.36,9.22,33.48Z"/><path class="cls-1" d="M8.23,32.73q-.09.21.21.36A.26.26,0,0,0,8.83,33q.09-.21-.21-.36T8.23,32.73Z"/><path class="cls-1" d="M10.14,34.65q-.27.15,0,.54t.51.21q.27-.21,0-.57T10.14,34.65Z"/><path class="cls-1" d="M11.19,36q-.27.24.12.57t.6.09q.24-.24-.12-.57T11.19,36Z"/></g></g></svg>