<svg xmlns="http://www.w3.org/2000/svg" viewBox="0 0 131.48 110.76"><defs><style>.cls-1{fill:#ffc400;}.cls-2{fill:#632df1;}.cls-3{fill:#7739ff;}</style></defs><g id="Layer_2" data-name="Layer 2"><g id="Layer_1-2" data-name="Layer 1"><path class="cls-1" d="M97.83,50.73V30.88L82,40.34l-15.58-9a2.49,2.49,0,0,0-2.49,0L50.45,39.28l-4-7.21L33.62,30.69V50.5h0a2.44,2.44,0,0,0,1.22,2.23L64.84,70a2.49,2.49,0,0,0,2.48,0l29.3-17A2.45,2.45,0,0,0,97.83,50.73Z"/><path class="cls-2" d="M66.4,11.51,96.62,29a2.47,2.47,0,0,1,0,4.28l-29.3,17a2.49,2.49,0,0,1-2.48,0l-30-17.31a2.47,2.47,0,0,1,0-4.27l29-17.11A2.47,2.47,0,0,1,66.4,11.51Z"/><path class="cls-1" d="M66.4.33,96.62,17.77a2.47,2.47,0,0,1,0,4.28L67.32,39a2.49,2.49,0,0,1-2.48,0l-30-17.31a2.47,2.47,0,0,1,0-4.27L63.91.34A2.49,2.49,0,0,1,66.4.33Z"/><rect class="cls-1" x="97.79" y="105.65" width="4.83" height="4.66" rx="2.33"/><rect class="cls-3" x="107.58" y="83.56" width="5.67" height="5.47" rx="2.73"/><path class="cls-2" d="M68.1,104.43a1.88,1.88,0,0,1-1.74.87c-1.31,0-1.83-1.07-1.83-2.3V83.53H58.89v19.73a8,8,0,0,0,.58,3.1c.79,1.87,2.65,4.2,7,4.2a7.15,7.15,0,0,0,5.37-2.94Z"/><rect class="cls-2" x="7.1" y="90.89" width="4.83" height="4.66"/><path class="cls-2" d="M93.58,100.2a14,14,0,0,0-.64-4.34,8.57,8.57,0,0,0-2-3.13A10.48,10.48,0,0,0,88,90.64a9.68,9.68,0,0,0-4.08-.88,9.13,9.13,0,0,0-3.67.64,10.22,10.22,0,0,0-3.45,2.13,10,10,0,0,0-2.3,3.33,11.63,11.63,0,0,0,0,8.68,10.07,10.07,0,0,0,2.3,3.33A10.22,10.22,0,0,0,80.24,110a12,12,0,0,0,4.22.74,10.61,10.61,0,0,0,4.56-1,11.58,11.58,0,0,0,3.46-2.45l-3.28-3.42a5.72,5.72,0,0,1-2.31,1.62,6.67,6.67,0,0,1-2.66.54,4.37,4.37,0,0,1-3-1,5.64,5.64,0,0,1-2.09-2.83H93.58Zm-13.8-3.65.18-.27a4.53,4.53,0,0,1,.54-.61,4.74,4.74,0,0,1,6.26-.21.17.17,0,0,1,.06.06,3.33,3.33,0,0,1,.46.46.52.52,0,0,1,.1.11,3.75,3.75,0,0,1,.38.51h0a6.25,6.25,0,0,1,.33.63v.05a3.55,3.55,0,0,1,.22.65H79.16a5.09,5.09,0,0,1,.4-1A3.84,3.84,0,0,1,79.78,96.55Z"/><path class="cls-2" d="M51,96.09a4.16,4.16,0,0,0-3.48-1.61,3,3,0,0,0-1.45.37,1.32,1.32,0,0,0-.71,1.27,1.13,1.13,0,0,0,.73,1.09,8.94,8.94,0,0,0,1.84.62l2.39.58a8.55,8.55,0,0,1,2.39,1,5.12,5.12,0,0,1,2.57,4.81,5.79,5.79,0,0,1-.81,3.19,6.25,6.25,0,0,1-2,2,8.44,8.44,0,0,1-2.83,1.07,15.57,15.57,0,0,1-3.09.31,10.09,10.09,0,0,1-3.64-.65,12.87,12.87,0,0,1-4.22-2.86l3.27-3.41a6.21,6.21,0,0,0,2.47,1.7,7.09,7.09,0,0,0,2.35.47,5.46,5.46,0,0,0,1.85-.24,1.15,1.15,0,0,0,.82-1.14,1.25,1.25,0,0,0-.73-1.17,7.63,7.63,0,0,0-1.84-.66l-2.39-.57a9.49,9.49,0,0,1-2.39-.93,5.1,5.1,0,0,1-1.84-1.74,5.58,5.58,0,0,1-.72-3,6.45,6.45,0,0,1,.68-3.05A6.29,6.29,0,0,1,42,91.4a7.55,7.55,0,0,1,2.53-1.28,10.55,10.55,0,0,1,2.91-.36,8.7,8.7,0,0,1,3.88.8,10.86,10.86,0,0,1,3.14,2.07Z"/><path class="cls-2" d="M113.25,110.43v-20h-5.64v20Z"/><path class="cls-2" d="M9.21,104.43a1.88,1.88,0,0,1-1.74.87c-1.31,0-1.83-1.07-1.83-2.3V83.53H0v19.73a8,8,0,0,0,.58,3.1c.79,1.87,2.65,4.2,7,4.2A7.15,7.15,0,0,0,13,107.62Z"/><rect class="cls-2" x="65.99" y="90.89" width="4.83" height="4.66"/><rect class="cls-2" x="125.62" y="90.89" width="4.83" height="4.66"/><path class="cls-2" d="M127.73,104.43a1.88,1.88,0,0,1-1.74.87c-1.31,0-1.82-1.07-1.82-2.3s0-19.47,0-19.47h-5.64v19.73a8,8,0,0,0,.58,3.1c.79,1.87,2.65,4.2,7,4.2a7.15,7.15,0,0,0,5.37-2.94Z"/><path class="cls-2" d="M35.1,100.18h0v-.3h0a10.34,10.34,0,1,0-4.73,9v1.65H35.1V100.19Zm-10.32,5.56a5.56,5.56,0,1,1,5.56-5.56A5.56,5.56,0,0,1,24.78,105.74Z"/></g></g></svg>